<svg width="24" height="24" viewBox="0 0 24 24" fill="none" xmlns="http://www.w3.org/2000/svg">
  <!-- Cheshire Cat — Activity Bar icon (dark theme) -->
  <!-- Eyes -->
  <ellipse cx="7.5" cy="5.5" rx="1.8" ry="2" fill="#C4C4C4"/>
  <ellipse cx="16.5" cy="5.5" rx="1.8" ry="2" fill="#C4C4C4"/>
  <!-- Pupils -->
  <ellipse cx="7.9" cy="5.5" rx="0.7" ry="1" fill="#1e1e1e"/>
  <ellipse cx="16.9" cy="5.5" rx="0.7" ry="1" fill="#1e1e1e"/>
  <!-- Upper grin -->
  <path d="M3 11 Q6 8.5 12 8.5 Q18 8.5 21 11" stroke="#C4C4C4" stroke-width="1.4" fill="none" stroke-linecap="round"/>
  <!-- Lower grin -->
  <path d="M3 11 Q6 16.5 12 16.5 Q18 16.5 21 11" stroke="#C4C4C4" stroke-width="1.4" fill="none" stroke-linecap="round"/>
  <!-- Teeth -->
  <line x1="7.5" y1="10" x2="7.5" y2="14" stroke="#C4C4C4" stroke-width="0.9" stroke-linecap="round"/>
  <line x1="12" y1="9.5" x2="12" y2="15" stroke="#C4C4C4" stroke-width="0.9" stroke-linecap="round"/>
  <line x1="16.5" y1="10" x2="16.5" y2="14" stroke="#C4C4C4" stroke-width="0.9" stroke-linecap="round"/>
  <!-- Shield hint -->
  <path d="M17 18 L20 19.2 L20 22 Q20 23.5 17 24 Q14 23.5 14 22 L14 19.2 Z" fill="#C4C4C4" opacity="0.6"/>
  <path d="M15.5 21 L16.5 22 L18.5 20" stroke="#1e1e1e" stroke-width="1" stroke-linecap="round" stroke-linejoin="round"/>
</svg>
