<svg width="128" height="128" viewBox="0 0 128 128" fill="none" xmlns="http://www.w3.org/2000/svg">
  <rect width="128" height="128" fill="#1e1e2e"/>
  <!-- Cheshire Cat grin — extension marketplace icon -->
  <!-- Eyes -->
  <ellipse cx="42" cy="38" rx="9" ry="11" fill="#a855f7"/>
  <ellipse cx="86" cy="38" rx="9" ry="11" fill="#a855f7"/>
  <!-- Pupils -->
  <ellipse cx="44" cy="38" rx="4" ry="6" fill="#1e1e2e"/>
  <ellipse cx="88" cy="38" rx="4" ry="6" fill="#1e1e2e"/>
  <!-- Eye glints -->
  <circle cx="46" cy="35" r="2" fill="#e9d5ff"/>
  <circle cx="90" cy="35" r="2" fill="#e9d5ff"/>
  <!-- Upper lip of grin -->
  <path d="M18 62 Q30 52 64 52 Q98 52 110 62" stroke="#a855f7" stroke-width="4" fill="none" stroke-linecap="round"/>
  <!-- Lower lip of grin -->
  <path d="M18 62 Q30 88 64 88 Q98 88 110 62" stroke="#a855f7" stroke-width="4" fill="none" stroke-linecap="round"/>
  <!-- Teeth -->
  <line x1="40" y1="58" x2="40" y2="76" stroke="#a855f7" stroke-width="2.5" stroke-linecap="round"/>
  <line x1="52" y1="55" x2="52" y2="80" stroke="#a855f7" stroke-width="2.5" stroke-linecap="round"/>
  <line x1="64" y1="54" x2="64" y2="82" stroke="#a855f7" stroke-width="2.5" stroke-linecap="round"/>
  <line x1="76" y1="55" x2="76" y2="80" stroke="#a855f7" stroke-width="2.5" stroke-linecap="round"/>
  <line x1="88" y1="58" x2="88" y2="76" stroke="#a855f7" stroke-width="2.5" stroke-linecap="round"/>
  <!-- Subtle whisker hints -->
  <line x1="8" y1="55" x2="28" y2="60" stroke="#6b21a8" stroke-width="1.5" stroke-linecap="round" opacity="0.5"/>
  <line x1="8" y1="68" x2="28" y2="66" stroke="#6b21a8" stroke-width="1.5" stroke-linecap="round" opacity="0.5"/>
  <line x1="120" y1="55" x2="100" y2="60" stroke="#6b21a8" stroke-width="1.5" stroke-linecap="round" opacity="0.5"/>
  <line x1="120" y1="68" x2="100" y2="66" stroke="#6b21a8" stroke-width="1.5" stroke-linecap="round" opacity="0.5"/>
  <!-- Shield badge (security) -->
  <path d="M104 96 L114 100 L114 110 Q114 116 104 120 Q94 116 94 110 L94 100 Z" fill="#a855f7" opacity="0.8"/>
  <path d="M100 106 L103 109 L109 103" stroke="#1e1e2e" stroke-width="2" stroke-linecap="round" stroke-linejoin="round"/>
</svg>
